<svg width="156" height="30" viewBox="0 0 156 30" fill="none" xmlns="http://www.w3.org/2000/svg">
<path fill-rule="evenodd" clip-rule="evenodd" d="M155.05 13.2C155.05 15.34 154.72 17.24 154.05 18.91C153.38 20.55 152.45 21.94 151.25 23.06C150.08 24.16 148.69 24.99 147.07 25.57C145.45 26.15 143.7 26.43 141.81 26.43C139.92 26.43 138.16 26.14 136.55 25.57C134.93 24.97 133.54 24.1 132.37 22.98C131.2 21.86 130.28 20.47 129.61 18.83C128.94 17.19 128.61 15.31 128.61 13.2C128.61 11.09 128.94 9.17001 129.61 7.53001C130.31 5.89001 131.24 4.52001 132.41 3.42001C133.61 2.30001 135 1.45001 136.59 0.87001C138.21 0.29001 139.95 0.0100098 141.81 0.0100098C143.67 0.0100098 145.4 0.30001 146.99 0.87001C148.61 1.45001 150.01 2.30001 151.21 3.42001C152.41 4.52001 153.34 5.89001 154.01 7.53001C154.71 9.17001 155.05 11.07 155.05 13.2ZM137.9 1.98001C133.54 3.24001 130.64 7.30001 130.64 10.21C132.61 6.43001 134.12 4.57001 137.9 1.98001ZM147.53 13.2C147.53 10.73 147.01 8.88001 145.98 7.65001C144.98 6.42001 143.6 5.80001 141.84 5.80001C140.08 5.80001 138.72 6.42001 137.66 7.65001C136.63 8.86001 136.11 10.71 136.11 13.2C136.11 15.69 136.63 17.56 137.66 18.79C138.69 20.02 140.07 20.64 141.8 20.64C143.53 20.64 144.95 20.02 145.98 18.79C147.01 17.56 147.53 15.69 147.53 13.2ZM18.58 1.44001C18.75 1.96001 18.83 2.50001 18.83 3.08001C18.83 4.20001 18.59 5.00001 18.11 5.49001C17.66 5.95001 17.04 6.18001 16.24 6.18001H7.33V11.04H14.48C14.71 11.36 14.89 11.77 15.03 12.29C15.2 12.81 15.28 13.35 15.28 13.93C15.28 15.02 15.04 15.81 14.56 16.3C14.11 16.76 13.49 16.99 12.69 16.99H7.41V25.92C7.1 26.01 6.6 26.09 5.93 26.18C5.28 26.27 4.63 26.31 3.98 26.31C3.33 26.31 2.75 26.25 2.24 26.14C1.76 26.05 1.35 25.88 1.01 25.62C0.67 25.36 0.42 25 0.25 24.54C0.08 24.08 0 23.48 0 22.73V4.16001C0 2.93001 0.349999 1.95001 1.06 1.23001C1.77 0.510009 2.73 0.150009 3.95 0.150009H18.08C18.28 0.470009 18.45 0.90001 18.59 1.44001H18.58ZM3.43 25.75C1.93 24.64 1.34 23.96 0.57 22.68C0.47 24.48 1.7 25.66 3.43 25.75ZM3.59 0.790009C1.79 0.790009 0.68 2.08001 0.68 3.81001C1.62 2.29001 2.24 1.61001 3.59 0.790009ZM123.86 15.39C124.09 18.02 124.53 26.31 124.64 28.95C124.22 29.2 123.77 29.37 123.3 29.47C122.85 29.59 122.27 29.66 121.55 29.66C120.61 29.66 119.81 29.5 119.17 29.18C118.53 28.86 118.18 28.23 118.13 27.28C117.98 24.58 117.88 18.93 117.83 16.78C117.81 14.62 117.76 12.81 117.68 11.35H117.49C117.24 12.32 116.88 13.53 116.41 15C115.94 16.46 115.37 18.34 114.7 20.62C114.38 20.89 113.96 21.12 113.43 21.29C112.93 21.44 112.35 21.51 111.68 21.51C110.79 21.51 110.04 21.4 109.45 21.18C108.88 20.96 108.51 20.57 108.33 20.03C107.64 17.85 107.07 16.09 106.62 14.75C106.17 13.39 105.83 12.2 105.58 11.18H105.39C105.32 12.64 105.25 13.98 105.2 15.2C105.18 16.39 105.15 17.56 105.13 18.7C105.13 19.84 105.11 20.99 105.06 22.16C105.04 23.33 104.99 24.62 104.91 26.03C104.59 26.15 104.17 26.25 103.64 26.33C103.12 26.43 102.6 26.48 102.08 26.48C100.99 26.48 100.13 26.31 99.51 25.96C98.91 25.61 98.62 24.98 98.62 24.06L99.7 5.08001C99.9 4.76001 100.33 4.41001 101 4.04001C101.67 3.67001 102.61 3.48001 103.83 3.48001C105.14 3.48001 106.17 3.69001 106.92 4.11001C107.66 4.51001 108.21 5.16001 108.56 6.08001C108.78 6.68001 109.02 7.36001 109.27 8.13001C109.54 8.90001 109.8 9.69001 110.05 10.51C110.32 11.33 110.58 12.15 110.83 12.97C111.08 13.76 111.3 14.48 111.5 15.13H111.69C112.29 13.05 112.88 11.04 113.48 9.10001C114.08 7.14001 114.62 5.50001 115.12 4.19001C115.49 3.99001 115.96 3.83001 116.53 3.71001C117.13 3.56001 117.78 3.49001 118.5 3.49001C119.72 3.49001 120.71 3.68001 121.48 4.05001C122.25 4.40001 122.7 4.91001 122.82 5.58001C122.92 6.08001 123.02 6.85001 123.12 7.89001C123.24 8.91001 123.37 10.06 123.49 11.35C123.61 12.64 123.74 14 123.86 15.44V15.39ZM103.55 4.11001C101.58 4.11001 100.15 4.90001 100.29 6.97001C101.1 5.36001 101.81 4.73001 103.55 4.11001ZM111.06 20.65C109.97 19.78 109.47 19.13 108.65 17.9C108.85 19.49 109.63 20.65 111.06 20.65ZM68.81 6.24001V25.36C68.46 25.71 67.95 25.97 67.28 26.14C66.64 26.34 65.85 26.44 64.94 26.44C64.03 26.44 63.15 26.3 62.34 26.03C61.52 25.76 60.85 25.1 60.33 24.06L56.65 16.54C56.28 15.77 55.94 15.05 55.65 14.38C55.35 13.69 55.03 12.89 54.68 12L54.46 12.04C54.56 13.38 54.61 14.74 54.61 16.13C54.63 17.52 54.65 18.88 54.65 20.22V25.99C54.38 26.06 53.96 26.14 53.38 26.21C52.83 26.28 52.29 26.32 51.74 26.32C51.19 26.32 50.71 26.28 50.29 26.21C49.87 26.14 49.52 25.99 49.25 25.76C48.98 25.54 48.77 25.24 48.62 24.87C48.47 24.47 48.4 23.96 48.4 23.34V4.74001C48.75 4.24001 49.28 3.87001 50 3.62001C50.72 3.37001 51.49 3.25001 52.31 3.25001C53.23 3.25001 54.1 3.40001 54.91 3.70001C55.75 3.97001 56.42 4.62001 56.92 5.63001L60.64 13.15C61.01 13.92 61.35 14.65 61.64 15.35C61.94 16.02 62.26 16.8 62.61 17.69L62.8 17.65C62.7 16.31 62.64 14.97 62.61 13.63C62.59 12.29 62.57 10.95 62.57 9.61001V3.58001C62.84 3.51001 63.25 3.43001 63.8 3.36001C64.37 3.29001 64.93 3.25001 65.47 3.25001C66.56 3.25001 67.39 3.45001 67.96 3.85001C68.53 4.22001 68.82 5.02001 68.82 6.23001L68.81 6.24001ZM51.36 25.64C50.12 24.96 49.63 24.37 49.03 23.04C49.07 24.15 49.17 25.86 51.36 25.64ZM64.02 25.76C62.52 24.92 61.81 24.29 60.77 22.89C60.81 24 61.82 25.98 64.02 25.76ZM43.43 4.62001C43.58 4.98001 43.65 5.46001 43.65 6.06001V18.05C43.65 19.28 43.41 20.41 42.94 21.43C42.49 22.43 41.84 23.3 40.97 24.03C40.1 24.74 39.05 25.28 37.81 25.67C36.57 26.06 35.17 26.25 33.61 26.25C32.05 26.25 30.65 26.06 29.41 25.67C28.17 25.28 27.12 24.74 26.25 24.03C25.38 23.3 24.71 22.43 24.24 21.43C23.79 20.4 23.57 19.28 23.57 18.05V0.330009C23.84 0.280009 24.28 0.230009 24.87 0.160009C25.47 0.0700094 26.04 0.02001 26.58 0.02001C27.12 0.02001 27.65 0.0700094 28.07 0.160009C28.52 0.230009 28.89 0.370009 29.19 0.570009C29.49 0.780009 29.71 1.06001 29.86 1.42001C30.01 1.78001 30.08 2.26001 30.08 2.86001V17.95C30.08 19.04 30.4 19.9 31.05 20.51C31.72 21.13 32.58 21.43 33.62 21.43C34.66 21.43 35.54 21.12 36.19 20.51C36.83 19.89 37.16 19.04 37.16 17.95V3.53001C37.43 3.48001 37.87 3.43001 38.46 3.36001C39.06 3.27001 39.63 3.22001 40.17 3.22001C40.71 3.22001 41.24 3.27001 41.66 3.36001C42.11 3.43001 42.48 3.57001 42.78 3.77001C43.08 3.98001 43.3 4.26001 43.45 4.62001H43.43ZM29.71 24.79C27.31 22.93 26.19 21.76 24.57 19.46C24.57 21.53 26.79 24.58 29.71 24.79Z" fill="#010101"/>
<path fill-rule="evenodd" clip-rule="evenodd" d="M137.89 1.97003C134.11 4.56003 132.61 6.42003 130.63 10.2C130.63 7.30003 133.54 3.23003 137.89 1.97003ZM100.29 6.96003C101.1 5.36003 101.8 4.72003 103.54 4.11003C101.57 4.11003 100.14 4.90003 100.29 6.96003ZM108.65 17.9C108.86 19.49 109.64 20.65 111.06 20.65C109.97 19.78 109.48 19.13 108.65 17.9ZM89.4701 26.68C89.9501 25.89 90.2801 25.52 90.9901 24.98C89.8501 25.28 89.5601 25.74 89.4701 26.68ZM75.1901 26.66C75.6101 25.93 75.9201 25.54 76.7101 24.96C75.5701 25.27 75.2801 25.72 75.1901 26.66ZM60.7701 22.89C60.8101 24 61.8301 25.98 64.0201 25.76C62.5201 24.92 61.8101 24.29 60.7701 22.89ZM49.0201 23.03C49.0601 24.14 49.1601 25.85 51.3501 25.63C50.1101 24.95 49.6301 24.36 49.0201 23.03ZM24.5601 19.45C24.5601 21.52 26.7801 24.57 29.7101 24.79C27.3001 22.93 26.1801 21.76 24.5601 19.45ZM0.5701 22.68C0.4801 24.48 1.7001 25.65 3.4301 25.75C1.9301 24.64 1.3401 23.96 0.5701 22.68ZM0.680101 3.80003C1.6201 2.29003 2.2401 1.60003 3.5901 0.780029C1.7901 0.780029 0.680101 2.07003 0.680101 3.80003Z" fill="#D9328A"/>
<path fill-rule="evenodd" clip-rule="evenodd" d="M76.52 24.8C75.67 24.8 74.99 25.48 74.99 26.33V28.16C74.99 29.01 75.67 29.69 76.52 29.69C77.37 29.69 78.05 29.01 78.05 28.16V26.33C78.05 25.48 77.36 24.8 76.52 24.8ZM75.19 26.66C75.28 25.72 75.57 25.27 76.71 24.96C75.92 25.54 75.61 25.93 75.19 26.66ZM90.71 24.8C89.87 24.8 89.18 25.48 89.18 26.33V28.16C89.18 29.01 89.87 29.69 90.71 29.69C91.55 29.69 92.24 29.01 92.24 28.16V26.33C92.24 25.48 91.56 24.8 90.71 24.8ZM89.47 26.68C89.56 25.74 89.85 25.28 90.99 24.98C90.28 25.52 89.95 25.89 89.47 26.68Z" fill="#010101"/>
<path fill-rule="evenodd" clip-rule="evenodd" d="M85.22 23.08V28.16C85.22 29.01 84.54 29.69 83.69 29.69C82.84 29.69 82.16 29.01 82.16 28.16V23.08C82.16 22.23 82.85 21.55 83.69 21.55C84.53 21.55 85.22 22.23 85.22 23.08ZM94.61 22.14C94.31 22.49 93.87 22.76 93.27 22.96C92.68 23.18 91.97 23.29 91.15 23.29C90.56 23.29 90.05 23.24 89.63 23.14C89.23 23.04 88.89 22.9 88.62 22.7C88.37 22.5 88.16 22.24 87.99 21.92C87.84 21.59 87.7 21.22 87.58 20.8L86.91 18.23H80.18C79.98 18.98 79.78 19.75 79.58 20.54C79.38 21.33 79.18 22.1 78.98 22.85C78.64 22.97 78.27 23.07 77.87 23.14C77.5 23.24 77.04 23.29 76.49 23.29C75.23 23.29 74.28 23.08 73.66 22.66C73.07 22.21 72.77 21.61 72.77 20.84C72.77 20.49 72.82 20.14 72.92 19.8C73.02 19.45 73.13 19.04 73.25 18.57C73.43 17.9 73.66 17.07 73.96 16.07C74.28 15.08 74.63 14.02 75 12.88C75.38 11.71 75.77 10.52 76.19 9.3C76.62 8.09 77.01 6.95 77.38 5.88C77.76 4.79 78.09 3.82 78.39 2.98C79.03 1.31 79.24 0.81 81.03 0.34C81.9 0.11 82.77 0 83.64 0C84.88 0 85.97 0.189999 86.91 0.559999C87.88 0.909999 88.5 1.47 88.77 2.23C89.22 3.52 89.7 5.02 90.22 6.74C90.74 8.45 91.26 10.22 91.78 12.06C92.3 13.87 92.81 15.67 93.31 17.45C93.81 19.21 94.24 20.78 94.61 22.14ZM84.06 6.68C83.88 6.87 83.72 7.11 83.57 7.39C83.47 7.23 83.35 7.09 83.22 6.97C81.52 5.38 77.86 7.8 80.29 10.8C80.41 10.95 80.95 11.51 81.56 12.1C81.96 12.49 82.39 12.9 82.76 13.21C83.18 13.58 83.51 13.82 83.59 13.75C83.8 13.57 84.02 13.39 84.24 13.21L84.53 12.97C84.88 12.69 85.23 12.4 85.57 12.1C85.99 11.73 86.38 11.35 86.74 10.93C89.81 7.69 86.06 4.51 84.06 6.68Z" fill="#D9328A"/>
<path fill-rule="evenodd" clip-rule="evenodd" d="M83.9001 21.75C83.2001 22.32 82.8701 22.69 82.3701 23.45C82.4701 22.51 82.7601 22.06 83.9001 21.75Z" fill="#010101"/>
<path fill-rule="evenodd" clip-rule="evenodd" d="M82.4099 0.809973C80.7499 1.68997 80.0499 2.31997 79.1499 3.66997C79.2099 1.45997 81.2999 0.709973 82.4099 0.809973Z" fill="#010101"/>
<path fill-rule="evenodd" clip-rule="evenodd" d="M75.93 22.7001C74.04 22.4501 72.99 21.8001 73.58 19.6801C73.65 19.8501 73.7 20.0001 73.76 20.1401C74.1 21.0601 74.3 21.6001 75.93 22.7001Z" fill="#010101"/>
<path fill-rule="evenodd" clip-rule="evenodd" d="M86.7401 10.93C86.3801 11.35 85.9901 11.7301 85.5701 12.1001C85.2301 12.4001 84.8801 12.69 84.5301 12.97L84.2401 13.2101C84.0201 13.3901 83.8001 13.57 83.5901 13.75C83.5101 13.82 83.1801 13.5801 82.7601 13.2101C82.3901 12.9001 81.9601 12.4901 81.5601 12.1001C80.9501 11.5101 80.4101 10.9501 80.2901 10.8001C77.8601 7.80005 81.5201 5.38005 83.2201 6.97005C83.3501 7.09005 83.4701 7.23005 83.5701 7.39005C83.7201 7.11005 83.8801 6.87005 84.0601 6.68005C86.0601 4.51005 89.8101 7.69005 86.7401 10.93Z" fill="#010101"/>
<path fill-rule="evenodd" clip-rule="evenodd" d="M82.16 6.81995C81.14 7.41995 80.6799 7.88994 80.0099 9.00994C79.9099 7.11994 81.39 6.81995 82.16 6.81995Z" fill="#D9328A"/>
<path fill-rule="evenodd" clip-rule="evenodd" d="M83.9001 21.75C83.2001 22.32 82.8701 22.69 82.3701 23.45C82.4701 22.51 82.7601 22.06 83.9001 21.75Z" fill="#010101"/>
</svg>
