<svg width="26" height="33" viewBox="0 0 26 33" fill="none" xmlns="http://www.w3.org/2000/svg">
<g clip-path="url(#clip0_1122_33)">
<g clip-path="url(#clip1_1122_33)">
<path fill-rule="evenodd" clip-rule="evenodd" d="M81.0987 15.2C81.0987 17.34 80.7856 19.24 80.15 20.91C79.5144 22.55 78.6321 23.94 77.4936 25.06C76.3836 26.16 75.0649 26.99 73.528 27.57C71.991 28.15 70.3308 28.43 68.5377 28.43C66.7446 28.43 65.0749 28.14 63.5474 27.57C62.0105 26.97 60.6918 26.1 59.5818 24.98C58.4718 23.86 57.599 22.47 56.9633 20.83C56.3277 19.19 56.0146 17.31 56.0146 15.2C56.0146 13.09 56.3277 11.17 56.9633 9.53001C57.6274 7.89001 58.5097 6.52001 59.6197 5.42001C60.7582 4.30001 62.0769 3.45001 63.5854 2.87001C65.1223 2.29001 66.7731 2.01001 68.5377 2.01001C70.3023 2.01001 71.9436 2.30001 73.4521 2.87001C74.989 3.45001 76.3172 4.30001 77.4556 5.42001C78.5941 6.52001 79.4764 7.89001 80.112 9.53001C80.7761 11.17 81.0987 13.07 81.0987 15.2ZM64.8282 3.98001C60.6918 5.24001 57.9405 9.30001 57.9405 12.21C59.8095 8.43001 61.242 6.57001 64.8282 3.98001ZM73.9644 15.2C73.9644 12.73 73.471 10.88 72.4938 9.65001C71.5451 8.42001 70.2359 7.80001 68.5662 7.80001C66.8964 7.80001 65.6062 8.42001 64.6005 9.65001C63.6233 10.86 63.13 12.71 63.13 15.2C63.13 17.69 63.6233 19.56 64.6005 20.79C65.5777 22.02 66.8869 22.64 68.5282 22.64C70.1695 22.64 71.5167 22.02 72.4938 20.79C73.471 19.56 73.9644 17.69 73.9644 15.2ZM-48.3728 3.44001C-48.2115 3.96001 -48.1356 4.50001 -48.1356 5.08001C-48.1356 6.20001 -48.3633 7.00001 -48.8187 7.49001C-49.2456 7.95001 -49.8338 8.18001 -50.5928 8.18001H-59.0459V13.04H-52.2626C-52.0444 13.36 -51.8736 13.77 -51.7408 14.29C-51.5795 14.81 -51.5036 15.35 -51.5036 15.93C-51.5036 17.02 -51.7313 17.81 -52.1867 18.3C-52.6136 18.76 -53.2018 18.99 -53.9608 18.99H-58.97V27.92C-59.2641 28.01 -59.7385 28.09 -60.3741 28.18C-60.9908 28.27 -61.6074 28.31 -62.2241 28.31C-62.8408 28.31 -63.391 28.25 -63.8749 28.14C-64.3303 28.05 -64.7192 27.88 -65.0418 27.62C-65.3644 27.36 -65.6015 27 -65.7628 26.54C-65.9241 26.08 -66 25.48 -66 24.73V6.16001C-66 4.93001 -65.6679 3.95001 -64.9944 3.23001C-64.3208 2.51001 -63.41 2.15001 -62.2526 2.15001H-48.8472C-48.6574 2.47001 -48.4962 2.90001 -48.3633 3.44001H-48.3728ZM-62.7459 27.75C-64.169 26.64 -64.7287 25.96 -65.4592 24.68C-65.5541 26.48 -64.3872 27.66 -62.7459 27.75ZM-62.5941 2.79001C-64.3018 2.79001 -65.3549 4.08001 -65.3549 5.81001C-64.4631 4.29001 -63.8749 3.61001 -62.5941 2.79001ZM51.5082 17.39C51.7264 20.02 52.1438 28.31 52.2482 30.95C51.8497 31.2 51.4228 31.37 50.9769 31.47C50.55 31.59 49.9997 31.66 49.3167 31.66C48.4249 31.66 47.6659 31.5 47.0587 31.18C46.4515 30.86 46.1195 30.23 46.072 29.28C45.9297 26.58 45.8349 20.93 45.7874 18.78C45.7685 16.62 45.721 14.81 45.6451 13.35H45.4649C45.2277 14.32 44.8862 15.53 44.4403 17C43.9944 18.46 43.4536 20.34 42.8179 22.62C42.5144 22.89 42.1159 23.12 41.6131 23.29C41.1387 23.44 40.5885 23.51 39.9528 23.51C39.1085 23.51 38.3969 23.4 37.8372 23.18C37.2964 22.96 36.9454 22.57 36.7746 22.03C36.12 19.85 35.5792 18.09 35.1523 16.75C34.7254 15.39 34.4028 14.2 34.1656 13.18H33.9854C33.919 14.64 33.8526 15.98 33.8051 17.2C33.7862 18.39 33.7577 19.56 33.7387 20.7C33.7387 21.84 33.7197 22.99 33.6723 24.16C33.6533 25.33 33.6059 26.62 33.53 28.03C33.2264 28.15 32.8279 28.25 32.3251 28.33C31.8318 28.43 31.3385 28.48 30.8451 28.48C29.811 28.48 28.9951 28.31 28.4069 27.96C27.8377 27.61 27.5626 26.98 27.5626 26.06L28.5872 7.08001C28.7769 6.76001 29.1849 6.41001 29.8205 6.04001C30.4562 5.67001 31.348 5.48001 32.5054 5.48001C33.7482 5.48001 34.7254 5.69001 35.4369 6.11001C36.139 6.51001 36.6608 7.16001 36.9928 8.08001C37.2015 8.68001 37.4292 9.36001 37.6664 10.13C37.9226 10.9 38.1692 11.69 38.4064 12.51C38.6626 13.33 38.9092 14.15 39.1464 14.97C39.3836 15.76 39.5923 16.48 39.7821 17.13H39.9623C40.5315 15.05 41.0913 13.04 41.6605 11.1C42.2297 9.14001 42.7421 7.50001 43.2164 6.19001C43.5674 5.99001 44.0133 5.83001 44.5541 5.71001C45.1233 5.56001 45.74 5.49001 46.4231 5.49001C47.5805 5.49001 48.5197 5.68001 49.2503 6.05001C49.9808 6.40001 50.4077 6.91001 50.5215 7.58001C50.6164 8.08001 50.7113 8.85001 50.8062 9.89001C50.92 10.91 51.0433 12.06 51.1572 13.35C51.271 14.64 51.3944 16 51.5082 17.44V17.39ZM32.2397 6.11001C30.3708 6.11001 29.0141 6.90001 29.1469 8.97001C29.9154 7.36001 30.589 6.73001 32.2397 6.11001ZM39.3646 22.65C38.3305 21.78 37.8562 21.13 37.0782 19.9C37.268 21.49 38.0079 22.65 39.3646 22.65ZM-0.71872 8.24001V27.36C-1.05077 27.71 -1.53462 27.97 -2.17026 28.14C-2.77744 28.34 -3.52692 28.44 -4.39025 28.44C-5.25359 28.44 -6.08846 28.3 -6.85692 28.03C-7.63487 27.76 -8.27051 27.1 -8.76384 26.06L-12.2551 18.54C-12.6062 17.77 -12.9287 17.05 -13.2038 16.38C-13.4885 15.69 -13.7921 14.89 -14.1241 14L-14.3328 14.04C-14.2379 15.38 -14.1905 16.74 -14.1905 18.13C-14.1715 19.52 -14.1526 20.88 -14.1526 22.22V27.99C-14.4087 28.06 -14.8072 28.14 -15.3574 28.21C-15.8792 28.28 -16.3915 28.32 -16.9133 28.32C-17.4351 28.32 -17.8905 28.28 -18.289 28.21C-18.6874 28.14 -19.0195 27.99 -19.2756 27.76C-19.5318 27.54 -19.731 27.24 -19.8733 26.87C-20.0156 26.47 -20.082 25.96 -20.082 25.34V6.74001C-19.75 6.24001 -19.2472 5.87001 -18.5641 5.62001C-17.881 5.37001 -17.1505 5.25001 -16.3726 5.25001C-15.4997 5.25001 -14.6744 5.40001 -13.9059 5.70001C-13.109 5.97001 -12.4733 6.62001 -11.999 7.63001L-8.46974 15.15C-8.11872 15.92 -7.79615 16.65 -7.52103 17.35C-7.23641 18.02 -6.93282 18.8 -6.60077 19.69L-6.42051 19.65C-6.51539 18.31 -6.57231 16.97 -6.60077 15.63C-6.61974 14.29 -6.63872 12.95 -6.63872 11.61V5.58001C-6.38256 5.51001 -5.99359 5.43001 -5.4718 5.36001C-4.93103 5.29001 -4.39974 5.25001 -3.88743 5.25001C-2.85333 5.25001 -2.0659 5.45001 -1.52513 5.85001C-0.98436 6.22001 -0.709231 7.02001 -0.709231 8.23001L-0.71872 8.24001ZM-17.2738 27.64C-18.4503 26.96 -18.9151 26.37 -19.4844 25.04C-19.4464 26.15 -19.3515 27.86 -17.2738 27.64ZM-5.26308 27.76C-6.68616 26.92 -7.35974 26.29 -8.34641 24.89C-8.30846 26 -7.35026 27.98 -5.26308 27.76ZM-24.7972 6.62001C-24.6549 6.98001 -24.5885 7.46001 -24.5885 8.06001V20.05C-24.5885 21.28 -24.8162 22.41 -25.2621 23.43C-25.689 24.43 -26.3056 25.3 -27.131 26.03C-27.9564 26.74 -28.9526 27.28 -30.129 27.67C-31.3054 28.06 -32.6336 28.25 -34.1136 28.25C-35.5936 28.25 -36.9218 28.06 -38.0982 27.67C-39.2746 27.28 -40.2708 26.74 -41.0962 26.03C-41.9215 25.3 -42.5572 24.43 -43.0031 23.43C-43.43 22.4 -43.6387 21.28 -43.6387 20.05V2.33001C-43.3826 2.28001 -42.9651 2.23001 -42.4054 2.16001C-41.8362 2.07001 -41.2954 2.02001 -40.7831 2.02001C-40.2708 2.02001 -39.7679 2.07001 -39.3695 2.16001C-38.9426 2.23001 -38.5915 2.37001 -38.3069 2.57001C-38.0223 2.78001 -37.8136 3.06001 -37.6713 3.42001C-37.529 3.78001 -37.4626 4.26001 -37.4626 4.86001V19.95C-37.4626 21.04 -37.159 21.9 -36.5423 22.51C-35.9067 23.13 -35.0908 23.43 -34.1041 23.43C-33.1174 23.43 -32.2826 23.12 -31.6659 22.51C-31.0587 21.89 -30.7456 21.04 -30.7456 19.95V5.53001C-30.4895 5.48001 -30.0721 5.43001 -29.5123 5.36001C-28.9431 5.27001 -28.4023 5.22001 -27.89 5.22001C-27.3777 5.22001 -26.8749 5.27001 -26.4764 5.36001C-26.0495 5.43001 -25.6985 5.57001 -25.4138 5.77001C-25.1292 5.98001 -24.9205 6.26001 -24.7782 6.62001H-24.7972ZM-37.8136 26.79C-40.0905 24.93 -41.1531 23.76 -42.69 21.46C-42.69 23.53 -40.5838 26.58 -37.8136 26.79Z" fill="#010101"/>
<path fill-rule="evenodd" clip-rule="evenodd" d="M64.8189 3.97003C61.2328 6.56003 59.8097 8.42003 57.9312 12.2C57.9312 9.30003 60.692 5.23003 64.8189 3.97003ZM29.1471 8.96003C29.9156 7.36003 30.5797 6.72003 32.2304 6.11003C30.3615 6.11003 29.0048 6.90003 29.1471 8.96003ZM37.0784 19.9C37.2776 21.49 38.0176 22.65 39.3648 22.65C38.3307 21.78 37.8658 21.13 37.0784 19.9ZM18.8821 28.68C19.3375 27.89 19.6505 27.52 20.3241 26.98C19.2426 27.28 18.9675 27.74 18.8821 28.68ZM5.33439 28.66C5.73285 27.93 6.02695 27.54 6.77644 26.96C5.6949 27.27 5.41977 27.72 5.33439 28.66ZM-8.34613 24.89C-8.30818 26 -7.34048 27.98 -5.26279 27.76C-6.68587 26.92 -7.35946 26.29 -8.34613 24.89ZM-19.4936 25.03C-19.4556 26.14 -19.3607 27.85 -17.283 27.63C-18.4595 26.95 -18.9148 26.36 -19.4936 25.03ZM-42.6992 21.45C-42.6992 23.52 -40.5931 26.57 -37.8133 26.79C-40.0997 24.93 -41.1623 23.76 -42.6992 21.45ZM-65.4589 24.68C-65.5443 26.48 -64.3869 27.65 -62.7456 27.75C-64.1687 26.64 -64.7284 25.96 -65.4589 24.68ZM-65.3546 5.80003C-64.4628 4.29003 -63.8746 3.60003 -62.5938 2.78003C-64.3015 2.78003 -65.3546 4.07003 -65.3546 5.80003Z" fill="#D9328A"/>
<path fill-rule="evenodd" clip-rule="evenodd" d="M6.59607 26.8C5.78966 26.8 5.14453 27.48 5.14453 28.33V30.16C5.14453 31.01 5.78966 31.6901 6.59607 31.6901C7.40248 31.6901 8.04761 31.01 8.04761 30.16V28.33C8.04761 27.48 7.39299 26.8 6.59607 26.8ZM5.33428 28.66C5.41966 27.72 5.69479 27.27 6.77633 26.96C6.02684 27.54 5.73274 27.93 5.33428 28.66ZM20.0584 26.8C19.2615 26.8 18.6068 27.48 18.6068 28.33V30.16C18.6068 31.01 19.2615 31.6901 20.0584 31.6901C20.8553 31.6901 21.5099 31.01 21.5099 30.16V28.33C21.5099 27.48 20.8648 26.8 20.0584 26.8ZM18.882 28.68C18.9674 27.74 19.2425 27.28 20.324 26.98C19.6504 27.52 19.3374 27.89 18.882 28.68Z" fill="#010101"/>
<path fill-rule="evenodd" clip-rule="evenodd" d="M14.8496 25.08V30.16C14.8496 31.01 14.2045 31.69 13.3981 31.69C12.5917 31.69 11.9466 31.01 11.9466 30.16V25.08C11.9466 24.23 12.6012 23.55 13.3981 23.55C14.195 23.55 14.8496 24.23 14.8496 25.08ZM23.7581 24.14C23.4735 24.49 23.056 24.76 22.4868 24.96C21.9271 25.18 21.2535 25.29 20.4755 25.29C19.9158 25.29 19.4319 25.24 19.0335 25.14C18.654 25.04 18.3314 24.9 18.0753 24.7C17.8381 24.5 17.6389 24.24 17.4776 23.92C17.3353 23.59 17.2024 23.22 17.0886 22.8L16.453 20.23H10.0681C9.87835 20.98 9.6886 21.75 9.49886 22.54C9.30912 23.33 9.11937 24.1 8.92963 24.85C8.60707 24.97 8.25604 25.07 7.87655 25.14C7.52553 25.24 7.08911 25.29 6.56732 25.29C5.37193 25.29 4.47066 25.08 3.88245 24.66C3.32271 24.21 3.03809 23.61 3.03809 22.84C3.03809 22.49 3.08552 22.14 3.1804 21.8C3.27527 21.45 3.37963 21.04 3.49347 20.57C3.66424 19.9 3.88245 19.07 4.16706 18.07C4.47065 17.08 4.8027 16.02 5.15373 14.88C5.51424 13.71 5.88425 12.52 6.28271 11.3C6.69066 10.09 7.06065 8.95 7.41168 7.88C7.77219 6.79 8.08527 5.82 8.36988 4.98C8.97706 3.31 9.17629 2.81 10.8745 2.34C11.6999 2.11 12.5253 2 13.3507 2C14.5271 2 15.5612 2.19 16.453 2.56C17.3732 2.91 17.9614 3.47 18.2176 4.23C18.6445 5.52 19.0999 7.02 19.5932 8.74C20.0866 10.45 20.5799 12.22 21.0732 14.06C21.5665 15.87 22.0504 17.67 22.5248 19.45C22.9991 21.21 23.4071 22.78 23.7581 24.14ZM13.7491 8.68C13.5783 8.87 13.4265 9.11 13.2842 9.39C13.1894 9.23 13.0755 9.09 12.9522 8.97C11.3394 7.38 7.86706 9.8 10.1724 12.8C10.2863 12.95 10.7986 13.51 11.3773 14.1C11.7568 14.49 12.1648 14.9 12.5158 15.21C12.9142 15.58 13.2273 15.82 13.3032 15.75C13.5024 15.57 13.7112 15.39 13.9199 15.21L14.195 14.97C14.5271 14.69 14.8591 14.4 15.1817 14.1C15.5801 13.73 15.9501 13.35 16.2917 12.93C19.2042 9.69 15.6465 6.51 13.7491 8.68Z" fill="#D9328A"/>
<path fill-rule="evenodd" clip-rule="evenodd" d="M13.5975 23.75C12.9334 24.32 12.6204 24.69 12.146 25.45C12.2409 24.51 12.516 24.06 13.5975 23.75Z" fill="#010101"/>
<path fill-rule="evenodd" clip-rule="evenodd" d="M12.1836 2.80997C10.6088 3.68997 9.94467 4.31997 9.09082 5.66997C9.14774 3.45997 11.1306 2.70997 12.1836 2.80997Z" fill="#010101"/>
<path fill-rule="evenodd" clip-rule="evenodd" d="M6.03613 24.7002C4.24305 24.4502 3.2469 23.8002 3.80664 21.6802C3.87305 21.8502 3.92049 22.0002 3.97741 22.1402C4.29998 23.0602 4.48972 23.6002 6.03613 24.7002Z" fill="#010101"/>
<path fill-rule="evenodd" clip-rule="evenodd" d="M16.2917 12.9301C15.9502 13.3501 15.5802 13.7302 15.1817 14.1002C14.8592 14.4002 14.5271 14.6901 14.1951 14.9701L13.9199 15.2102C13.7112 15.3902 13.5025 15.5701 13.3033 15.7501C13.2274 15.8201 12.9143 15.5802 12.5158 15.2102C12.1648 14.9002 11.7568 14.4902 11.3774 14.1002C10.7986 13.5102 10.2863 12.9502 10.1725 12.8002C7.86711 9.80017 11.3394 7.38017 12.9522 8.97017C13.0756 9.09017 13.1894 9.23017 13.2843 9.39017C13.4266 9.11017 13.5784 8.87017 13.7492 8.68017C15.6466 6.51017 19.2043 9.69017 16.2917 12.9301Z" fill="#010101"/>
<path fill-rule="evenodd" clip-rule="evenodd" d="M11.9468 8.82007C10.9791 9.42007 10.5426 9.89006 9.90692 11.0101C9.81205 9.12006 11.2162 8.82007 11.9468 8.82007Z" fill="#D9328A"/>
<path fill-rule="evenodd" clip-rule="evenodd" d="M13.5975 23.75C12.9334 24.32 12.6204 24.69 12.146 25.45C12.2409 24.51 12.516 24.06 13.5975 23.75Z" fill="#010101"/>
</g>
</g>
<defs>
<clipPath id="clip0_1122_33">
<rect width="26" height="33" fill="white"/>
</clipPath>
<clipPath id="clip1_1122_33">
<rect width="148" height="30" fill="white" transform="translate(-66 2)"/>
</clipPath>
</defs>
</svg>
